<svg xmlns="http://www.w3.org/2000/svg" viewBox="0 0 474 588">
  <path fill="#ffffff" class="amp" d="M474,522.5l-56.2-67.2l-19.5-24.1c35.7-46.8,54.8-88.4,62.3-158.3l-0.5-2.4h-94.8c-4.1,39.5-14.7,65.1-28,85.8l-78.4-96.9c22.4-13.3,91.7-54,91.7-131.6C350.4,39.3,275.6,0,214.8,0c-86.2,0-147,51.3-147,126.8c0,47.7,27,89.2,50,115.2l-11.6,7C14.7,304.4,0,356.7,0,409.7c0,82.4,67.1,156.9,172.6,156.9c83.3,0,125.5-29.2,157.8-61.5l37.6,47l28.7,35.9L474,522.5z M211.2,81.5c26.1,0,46.1,14.5,46.1,45.3c0,28.4-21.5,49.9-50.7,68.4c-26.3-28.4-40.1-50.6-40.1-69.2C166.5,96.9,187.3,81.5,211.2,81.5z M189.5,475.7c-64.7,0-81.6-51.6-81.6-73c0-43.9,20-59,65.4-92.3l101.6,126.8C256.5,454.3,224.9,475.7,189.5,475.7z" />
</svg>
