<svg xmlns="http://www.w3.org/2000/svg" viewBox="0 0 24 36">
	<path class="cursor" d="M12.1,4.3c-1.7,0-3,1.4-3,3.2v4.3c0,1.8,1.3,3.2,3,3.2s3-1.4,3-3.2V7.5C15.1,5.8,13.7,4.3,12.1,4.3zM13.4,12.3c0,0.7-0.6,1.3-1.3,1.3s-1.3-0.6-1.3-1.3V7c0-0.7,0.6-1.3,1.3-1.3s1.3,0.6,1.3,1.3V12.3z" />
	<path d="M14.2,0H9.8C4.4,0,0,4.4,0,9.8v16.5C0,31.6,4.4,36,9.8,36h4.5c5.4,0,9.8-4.4,9.8-9.8V9.8C24,4.4,19.6,0,14.2,0zM22.5,26.2c0,4.5-3.7,8.2-8.2,8.2H9.8c-4.5,0-8.2-3.7-8.2-8.2V9.8c0-4.5,3.7-8.2,8.2-8.2h4.5c4.5,0,8.2,3.7,8.2,8.2V26.2z" />
</svg>
