<svg xmlns="http://www.w3.org/2000/svg" viewBox="0 0 112.4 34.8"><path d="M91 2.9h21.4V9H98.5v7.1h12v6h-12v10.2H91z"/><g class="ampersand"><path d="M67.2 22.9c0 1.1.8 3.7 4 3.7 1.8 0 3.3-1.1 4.2-1.9l-5-6.4c-2.2 1.6-3.2 2.4-3.2 4.6M74.6 9c0-1.5-1-2.3-2.3-2.3-1.2 0-2.2.8-2.2 2.2 0 .9.7 2 2 3.5 1.5-.9 2.5-1.9 2.5-3.4"/><path d="M72.5 0C63 0 55.3 7.8 55.3 17.4S63 34.8 72.5 34.8c3.3 0 6.5-1 9.1-2.6l-1.5-1.9-1.8-2.3c-1.6 1.6-3.7 3.1-7.8 3.1-5.2 0-8.5-3.7-8.5-7.9 0-2.7.7-5.3 5.3-8l.6-.3c-1.1-1.3-2.5-3.4-2.5-5.8 0-3.8 3-6.4 7.3-6.4 3 0 6.7 2 6.7 6.4 0 3.9-3.4 5.9-4.5 6.6l3.9 4.9c.7-1 1.2-2.3 1.4-4.3h4.7v.1c-.4 3.5-1.3 5.6-3.1 7.9l1 1.2 2.8 3.4c2.7-3.1 4.3-7.1 4.3-11.5C89.7 7.8 82 0 72.5 0"/></g><path d="M37 22.4c.2 3.5 2.3 4.6 5.5 4.6 2.3 0 4.6-.8 4.6-3 0-2.6-4.1-3.1-8.3-4.3-4.1-1.2-8.5-3.1-8.5-8.5 0-6.4 6.4-8.9 11.8-8.9 5.8 0 11.6 2.8 11.6 9.5h-7.6c.1-2.7-2.4-3.5-4.7-3.5-1.6 0-3.7.6-3.7 2.5 0 2.3 4.2 2.7 8.4 3.9s8.4 3.2 8.4 8.5c0 7.4-6.3 9.8-12.6 9.8-6.7 0-12.6-3-12.6-10.5H37v-.1zm-9.1 9.9H23l-.4-3.3c-2 2.8-5.4 3.8-8.1 3.8C5.7 32.9 0 26.1 0 17.6S5.7 2.3 14.5 2.3c6 0 12.4 3.2 13.1 10.6H20c-.2-2.5-2.7-4-5.7-4-4.9 0-6.8 4.4-6.8 8.7s1.9 8.7 6.8 8.7c3.7 0 6.3-1.8 6.7-4.4h-5.3v-5.7h12.2v16.1z"/></svg>